<svg xmlns="http://www.w3.org/2000/svg" viewBox="0 0 430 96" role="img" aria-labelledby="title">
  <title id="title">Crystal Blue Window Cleaning logo</title>
  <defs>
    <linearGradient id="glass" x1="26" y1="14" x2="72" y2="78" gradientUnits="userSpaceOnUse">
      <stop offset="0" stop-color="#dff5ff"/>
      <stop offset="0.5" stop-color="#a9ddff"/>
      <stop offset="1" stop-color="#68bde8"/>
    </linearGradient>
    <linearGradient id="wave" x1="13" y1="62" x2="84" y2="62" gradientUnits="userSpaceOnUse">
      <stop offset="0" stop-color="#11a6bc"/>
      <stop offset="0.55" stop-color="#0697b2"/>
      <stop offset="1" stop-color="#087ea4"/>
    </linearGradient>
    <linearGradient id="underWave" x1="16" y1="73" x2="80" y2="82" gradientUnits="userSpaceOnUse">
      <stop offset="0" stop-color="#8de1e5"/>
      <stop offset="1" stop-color="#42b9cc"/>
    </linearGradient>
    <filter id="softShadow" x="-12%" y="-10%" width="124%" height="126%" color-interpolation-filters="sRGB">
      <feDropShadow dx="0" dy="4" stdDeviation="4" flood-color="#05506a" flood-opacity="0.16"/>
    </filter>
  </defs>
  <g filter="url(#softShadow)">
    <path d="M24 57V39c0-15.46 12.54-28 28-28s28 12.54 28 28v18H24Z" fill="url(#glass)"/>
    <path d="M52 12v45M24 39h56M24 57h56" stroke="#ffffff" stroke-width="4.4" stroke-linecap="round"/>
    <path d="M51 12v45" stroke="#ffffff" stroke-width="5.8" stroke-linecap="round"/>
    <path d="M72 23c1.32 7.1 3.72 9.5 10.8 10.8C75.72 35.1 73.32 37.5 72 44.6 70.68 37.5 68.28 35.1 61.2 33.8 68.28 32.5 70.68 30.1 72 23Z" fill="#ffffff"/>
    <path d="M13 70c11.7-5.9 12.66-24.78 29.84-29.24 9.44-2.44 19.56.46 21.56 9.7.72 3.34-.18 6.3-1.76 8.54-3.18-7.62-15.44-3.62-12.24 6.18 2.82 8.64 13.24 10.44 22.1 8.22 5.52-1.38 10.6-3.8 16.5-6.46-5.68 8.02-15.78 12.38-28.5 11.74-13.62-.68-27.42-8.7-47.5-8.68Z" fill="url(#wave)"/>
    <path d="M16 77.2c17.64-7.66 30.1-.82 42.44 4.92 10.66 4.96 19.2 3.04 28.1-2.46-13.26 12.02-25.58 13.02-38.86 5.72C37.7 79.9 27.64 75.08 16 77.2Z" fill="url(#underWave)" opacity="0.82"/>
  </g>
  <text x="112" y="43" fill="#ffffff" font-family="Fraunces, Georgia, serif" font-size="30" font-weight="600" letter-spacing="0">
    Crystal Blue
  </text>
  <text x="113" y="69" fill="#d8fbff" font-family="Inter, Arial, sans-serif" font-size="14" font-weight="800" letter-spacing="2.1">
    WINDOW CLEANING
  </text>
</svg>
